<?xml version="1.0" encoding="utf-8"?>
<!DOCTYPE svg PUBLIC "-//W3C//DTD SVG 1.1//EN" "http://www.w3.org/Graphics/SVG/1.1/DTD/svg11.dtd">
<svg version="1.1" xmlns="http://www.w3.org/2000/svg" xmlns:xlink="http://www.w3.org/1999/xlink" x="0px" y="0px" width="780px"
	 height="200px" viewBox="0 0 780 200" enable-background="new 0 0 780 200" xml:space="preserve">
<g id="graphic">
	<g>
		<path fill="#F0DB4F" d="M20.622,34.889c0-5.5,4.5-10,10-10h123.825c5.5,0,10,4.5,10,10v123.824c0,5.5-4.5,10-10,10H30.622
			c-5.5,0-10-4.5-10-10V34.889z"/>
	</g>
	<path fill="#DDB022" d="M152.676,134.411c-1.053-6.562-5.332-12.072-18.005-17.213c-4.402-2.023-9.311-3.473-10.773-6.808
		c-0.52-1.942-0.588-3.036-0.26-4.211c0.943-3.814,5.496-5.004,9.105-3.91c2.324,0.779,4.525,2.57,5.852,5.428
		c6.207-4.02,6.193-3.992,10.527-6.754c-1.586-2.461-2.434-3.596-3.473-4.648c-3.732-4.17-8.818-6.316-16.953-6.152
		c-1.408,0.178-2.83,0.369-4.238,0.547c-4.061,1.025-7.93,3.158-10.199,6.016c-6.809,7.725-4.868,21.245,3.418,26.81
		c8.162,6.125,20.151,7.52,21.683,13.248c1.49,7.013-5.154,9.283-11.757,8.476c-4.867-1.011-7.574-3.485-10.5-7.983
		c-5.387,3.117-5.387,3.117-10.923,6.302c1.312,2.872,2.693,4.171,4.895,6.658c10.417,10.568,36.489,10.049,41.165-5.946
		C152.43,143.722,153.687,140.058,152.676,134.411z M98.81,90.99H85.357c0,11.621-0.055,23.159-0.055,34.78
		c0,7.396,0.383,14.178-0.82,16.256c-1.969,4.088-7.068,3.582-9.393,2.789c-2.365-1.162-3.568-2.816-4.962-5.154
		c-0.383-0.67-0.67-1.189-0.766-1.23c-3.65,2.229-7.287,4.471-10.938,6.699c1.818,3.732,4.498,6.973,7.93,9.078
		c5.126,3.075,12.018,4.019,19.222,2.365c4.689-1.368,8.736-4.198,10.855-8.505c3.062-5.646,2.406-12.481,2.379-20.042
		C98.878,115.694,98.81,103.363,98.81,90.99z"/>
</g>
<g id="text">
	<g>
		<path fill="#323330" d="M250.93,24.887c6.8,0,13,0.6,18.6,1.8s10.4,3.169,14.4,5.899c4,2.734,7.1,6.369,9.3,10.9
			c2.2,4.534,3.3,10.135,3.3,16.8c0,7.2-1.634,13.2-4.9,18c-3.269,4.8-8.1,8.734-14.5,11.8c8.8,2.535,15.365,6.969,19.7,13.301
			c4.332,6.334,6.5,13.969,6.5,22.899c0,7.2-1.4,13.435-4.2,18.7c-2.8,5.269-6.569,9.568-11.3,12.9
			c-4.734,3.334-10.134,5.799-16.2,7.399c-6.069,1.601-12.3,2.399-18.7,2.399h-69.2V24.887H250.93z M246.93,82.687
			c5.6,0,10.2-1.331,13.8-4c3.6-2.666,5.4-7,5.4-13c0-3.331-0.6-6.065-1.8-8.2c-1.2-2.131-2.8-3.8-4.8-5s-4.3-2.031-6.9-2.5
			c-2.6-0.466-5.3-0.7-8.1-0.7h-29.4v33.4H246.93z M248.729,143.286c3.066,0,6-0.3,8.8-0.899c2.8-0.601,5.266-1.601,7.4-3
			c2.131-1.4,3.831-3.301,5.1-5.701c1.266-2.399,1.9-5.465,1.9-9.199c0-7.332-2.069-12.565-6.2-15.7c-4.134-3.131-9.6-4.7-16.4-4.7
			h-34.2v39.2H248.729z"/>
		<path fill="#323330" d="M391.528,167.686v-14.399h-0.6c-3.6,6-8.269,10.335-14,13c-5.734,2.665-11.6,4-17.6,4
			c-7.6,0-13.834-1-18.7-3c-4.869-2-8.7-4.831-11.5-8.5c-2.8-3.665-4.769-8.132-5.9-13.399c-1.134-5.266-1.7-11.101-1.7-17.5V64.286
			h28.4v58.399c0,8.535,1.331,14.9,4,19.101c2.666,4.2,7.4,6.3,14.2,6.3c7.731,0,13.332-2.3,16.8-6.9
			c3.465-4.6,5.2-12.165,5.2-22.699v-54.2h28.4v103.399H391.528z"/>
		<path fill="#323330" d="M496.927,64.286v19h-20.801v51.2c0,4.8,0.801,8,2.4,9.6s4.8,2.4,9.6,2.4c1.6,0,3.131-0.066,4.6-0.2
			c1.467-0.132,2.866-0.331,4.201-0.601v22c-2.4,0.4-5.069,0.666-8,0.801c-2.936,0.131-5.801,0.199-8.601,0.199
			c-4.399,0-8.569-0.299-12.5-0.899c-3.935-0.601-7.399-1.766-10.399-3.5c-3-1.731-5.369-4.2-7.101-7.399
			c-1.734-3.201-2.601-7.4-2.601-12.601v-61h-17.199v-19h17.199v-31h28.4v31H496.927z"/>
		<path fill="#323330" d="M567.323,64.286v19h-20.799v51.2c0,4.8,0.799,8,2.4,9.6c1.6,1.6,4.799,2.4,9.6,2.4
			c1.6,0,3.131-0.066,4.6-0.2c1.465-0.132,2.865-0.331,4.199-0.601v22c-2.398,0.4-5.068,0.666-8,0.801
			c-2.934,0.131-5.799,0.199-8.6,0.199c-4.4,0-8.568-0.299-12.5-0.899c-3.934-0.601-7.399-1.766-10.399-3.5
			c-3-1.731-5.368-4.2-7.101-7.399c-1.734-3.201-2.6-7.4-2.6-12.601v-61h-17.199v-19h17.199v-31h28.4v31H567.323z"/>
		<path fill="#323330" d="M611.322,142.887c4.266,4.134,10.399,6.199,18.399,6.199c5.731,0,10.666-1.432,14.801-4.3
			c4.131-2.866,6.665-5.899,7.6-9.101h25c-4,12.4-10.135,21.27-18.4,26.601c-8.269,5.335-18.269,8-30,8
			c-8.134,0-15.469-1.3-22-3.899c-6.534-2.601-12.068-6.301-16.6-11.101c-4.534-4.8-8.034-10.531-10.5-17.2
			c-2.469-6.666-3.7-14-3.7-22c0-7.73,1.266-14.931,3.8-21.6c2.531-6.666,6.132-12.432,10.801-17.3
			c4.665-4.866,10.23-8.7,16.699-11.5c6.466-2.8,13.632-4.2,21.5-4.2c8.801,0,16.466,1.7,23,5.1c6.531,3.4,11.9,7.969,16.101,13.7
			c4.2,5.734,7.231,12.269,9.1,19.601c1.866,7.334,2.531,15,2,23h-74.6C604.722,132.086,607.054,138.755,611.322,142.887z
			 M643.422,88.486c-3.399-3.731-8.568-5.6-15.5-5.6c-4.534,0-8.3,0.769-11.3,2.3c-3,1.534-5.4,3.435-7.2,5.7
			c-1.8,2.269-3.068,4.668-3.8,7.199c-0.734,2.535-1.169,4.801-1.3,6.801h46.2C649.188,97.687,646.822,92.221,643.422,88.486z"/>
		<path fill="#323330" d="M722.72,64.286v19.2h0.4c1.331-3.2,3.131-6.166,5.399-8.9c2.266-2.73,4.866-5.065,7.801-7
			c2.931-1.931,6.065-3.431,9.399-4.5c3.331-1.065,6.8-1.6,10.4-1.6c1.865,0,3.931,0.334,6.2,1v26.4
			c-1.335-0.266-2.935-0.5-4.801-0.7c-1.868-0.2-3.668-0.3-5.399-0.3c-5.2,0-9.601,0.868-13.2,2.6c-3.6,1.734-6.5,4.1-8.7,7.1
			s-3.769,6.5-4.7,10.5c-0.934,4-1.399,8.334-1.399,13v46.6h-28.4V64.286H722.72z"/>
	</g>
</g>
</svg>
